<svg xmlns="http://www.w3.org/2000/svg" viewBox="0 0 64 64" role="img" aria-label="Plume de Bronze">
  <defs>
    <linearGradient id="metal" x1="10" y1="6" x2="54" y2="58" gradientUnits="userSpaceOnUse">
      <stop offset="0" stop-color="#F3D0B0"/>
      <stop offset="0.35" stop-color="#C5834A"/>
      <stop offset="0.7" stop-color="#8A4F28"/>
      <stop offset="1" stop-color="#F0C7A0"/>
    </linearGradient>
    <linearGradient id="sheen" x1="12" y1="8" x2="52" y2="56" gradientUnits="userSpaceOnUse">
      <stop offset="0" stop-color="#FFFFFF" stop-opacity="0.55"/>
      <stop offset="0.45" stop-color="#FFFFFF" stop-opacity="0"/>
      <stop offset="1" stop-color="#FFFFFF" stop-opacity="0"/>
    </linearGradient>
    <filter id="softShadow" x="-20%" y="-20%" width="140%" height="140%">
      <feDropShadow dx="0" dy="1.2" stdDeviation="1.2" flood-opacity="0.18"/>
    </filter>
  </defs>

  <!-- Feather body -->
  <path filter="url(#softShadow)"
        d="M46.8 9.6c-7.7 1.3-15.6 9.3-21.7 18.1c-5.4 7.8-8.9 16.2-9.8 21.8c-.4 2.6.3 4.5 1.9 5.2c1.8.8 4.5.1 7.7-2c6.4-4.1 13.6-12 18.6-20.4c6.1-10.3 8.5-20 5.6-23.5c-.7-.9-1.7-1.3-2.3-1.2z"
        fill="url(#metal)"/>

  <!-- Central shaft (subtle, premium) -->
  <path d="M44.8 12.9c-6 2.9-12.4 10.3-17.5 18.1c-5 7.6-8.5 15.6-10.1 21.1"
        fill="none" stroke="#2B1A10" stroke-opacity="0.35" stroke-width="1.7" stroke-linecap="round"/>

  <!-- Fine barbs (minimal strokes, not noisy) -->
  <path d="M38.7 21.8c-2.3.9-4.6 2.7-6.7 5.1M42.3 28.1c-3.2 1.2-6.4 3.8-9.1 7.4M41.2 36.1c-3.1.8-6.2 2.8-8.9 5.7"
        fill="none" stroke="#2B1A10" stroke-opacity="0.26" stroke-width="1.4" stroke-linecap="round"/>

  <!-- Tail tip / vote “spark” (tiny, classy) -->
  <path d="M17.2 55.1c2.7-.3 5.4-1.6 8-3.6"
        fill="none" stroke="#2B1A10" stroke-opacity="0.35" stroke-width="1.7" stroke-linecap="round"/>

  <!-- Sheen highlight -->
  <path d="M44.7 12.1c-6.8 2.1-13.7 10-18.9 17.7c-4.2 6.2-7.4 12.9-8.9 18.2c-.6 2 .1 3.4 1.8 3.3c3.6-.2 10.4-6.1 16-14.2c6.3-9.1 9.7-17.9 9.1-23.3c-.1-.8-.5-1.5-.9-1.7z"
        fill="url(#sheen)" opacity="0.9"/>
</svg>
