<?xml version="1.0" encoding="UTF-8"?>
<svg
    xmlns="http://www.w3.org/2000/svg"
    viewBox="0 0 100 100"
    width="100"
    height="100"
>
    <!-- Gold feather (top) -->
    <path
        d="M68 4
           C92 22, 96 54, 72 78
           C60 90, 44 96, 28 96
           C46 78, 60 56, 52 34
           C48 22, 52 12, 68 4 Z"
        fill="#E2B13C"
    />

    <!-- Silver feather (middle) -->
    <path
        d="M52 10
           C76 30, 80 56, 56 80
           C44 92, 30 96, 16 96
           C34 78, 46 58, 40 40
           C36 28, 40 18, 52 10 Z"
        fill="#B5B7BA"
    />

    <!-- Bronze feather (bottom) -->
    <path
        d="M36 18
           C58 38, 60 62, 38 86
           C28 96, 18 98, 6 100
           C22 82, 30 64, 26 48
           C24 34, 28 24, 36 18 Z"
        fill="#8B4A22"
    />
</svg>
